<svg xmlns="http://www.w3.org/2000/svg" xmlns:xlink="http://www.w3.org/1999/xlink" width="70" zoomAndPan="magnify" viewBox="0 0 52.5 52.499999" height="70" preserveAspectRatio="xMidYMid meet" version="1.0"><defs><g/><clipPath id="246941f51f"><path d="M 0 5.25 L 52.003906 5.25 L 52.003906 20.25 L 0 20.25 Z M 0 5.25 " clip-rule="nonzero"/></clipPath></defs><g clip-path="url(#246941f51f)"><path fill="#ffffff" d="M 45.828125 19.398438 C 47.851562 19.347656 49.925781 19.050781 51.992188 18.511719 C 52.164062 18.464844 52.308594 18.335938 52.378906 18.167969 C 52.449219 18 52.433594 17.804688 52.34375 17.648438 L 46.6875 7.878906 C 46.574219 7.683594 46.355469 7.574219 46.136719 7.59375 L 44.566406 7.738281 L 44.566406 7.757812 L 44.496094 7.632812 C 44.433594 7.523438 44.304688 7.480469 44.191406 7.539062 C 44.066406 7.601562 43.933594 7.660156 43.796875 7.710938 L 43.015625 6.324219 C 42.953125 6.21875 42.824219 6.175781 42.714844 6.230469 C 41.25 6.949219 39.453125 7.046875 37.066406 6.539062 C 36.445312 6.402344 35.816406 6.242188 35.207031 6.085938 C 33.925781 5.753906 32.601562 5.414062 31.253906 5.320312 C 30.378906 5.257812 29.414062 5.503906 28.390625 6.046875 C 27.449219 6.546875 26.664062 7.191406 26.136719 7.691406 C 25.605469 7.191406 24.820312 6.546875 23.878906 6.046875 C 22.859375 5.503906 21.894531 5.257812 21.015625 5.320312 C 19.667969 5.410156 18.34375 5.753906 17.0625 6.085938 C 16.453125 6.242188 15.824219 6.402344 15.203125 6.539062 C 12.816406 7.046875 11.023438 6.949219 9.558594 6.230469 C 9.449219 6.175781 9.316406 6.21875 9.253906 6.324219 L 8.484375 7.707031 C 8.347656 7.652344 8.214844 7.597656 8.089844 7.535156 C 7.980469 7.476562 7.847656 7.519531 7.785156 7.628906 L 7.71875 7.746094 L 7.71875 7.734375 L 6.265625 7.589844 C 6.042969 7.566406 5.824219 7.679688 5.710938 7.875 L 0.0546875 17.644531 C -0.0351562 17.796875 -0.0507812 17.988281 0.015625 18.15625 C 0.0820312 18.324219 0.21875 18.453125 0.386719 18.503906 C 3.21875 19.371094 6.050781 19.75 8.808594 19.632812 C 11.207031 19.53125 13.339844 19.066406 15.222656 18.65625 C 18.347656 17.980469 20.816406 17.445312 22.933594 18.855469 C 23.40625 19.171875 23.84375 19.566406 24.214844 20.027344 C 24.324219 20.160156 24.488281 20.242188 24.664062 20.242188 L 27.382812 20.242188 C 27.550781 20.242188 27.703125 20.167969 27.816406 20.042969 C 28.328125 19.457031 28.910156 18.96875 29.558594 18.59375 C 31.855469 17.253906 34.308594 17.765625 37.417969 18.417969 C 39.796875 18.914062 42.503906 19.480469 45.828125 19.398438 Z M 44.199219 8.050781 L 44.671875 8.886719 L 44.671875 8.90625 L 44.679688 8.90625 L 49.214844 16.964844 C 47.320312 17.609375 45.019531 17.679688 42.003906 17.183594 C 41.117188 17.039062 40.085938 16.820312 39.003906 16.59375 C 36.992188 16.167969 34.917969 15.722656 33.246094 15.636719 C 31.878906 15.566406 30.429688 15.828125 29.164062 16.375 C 28.261719 16.765625 27.472656 17.296875 26.832031 17.929688 C 28.242188 15.082031 30.917969 14.558594 33.050781 14.671875 C 34.699219 14.757812 36.226562 15.078125 37.84375 15.417969 C 38.699219 15.59375 39.582031 15.78125 40.476562 15.925781 C 40.660156 15.957031 40.851562 15.988281 41.042969 16.019531 C 43.449219 16.417969 45.945312 16.832031 48.164062 16.003906 C 48.226562 15.980469 48.277344 15.929688 48.300781 15.863281 C 48.324219 15.800781 48.316406 15.722656 48.285156 15.664062 L 44.035156 8.121094 C 44.09375 8.097656 44.148438 8.074219 44.199219 8.050781 Z M 31.230469 5.789062 C 32.539062 5.878906 33.839844 6.214844 35.101562 6.539062 C 35.714844 6.695312 36.351562 6.863281 36.980469 6.996094 C 39.367188 7.503906 41.203125 7.425781 42.726562 6.742188 L 47.75 15.652344 C 45.703125 16.316406 43.378906 15.929688 41.121094 15.554688 C 40.929688 15.523438 40.738281 15.492188 40.554688 15.460938 C 39.667969 15.316406 38.792969 15.132812 37.941406 14.953125 C 36.378906 14.628906 34.765625 14.289062 33.078125 14.195312 C 31.484375 14.113281 30.09375 14.390625 28.949219 15.019531 C 27.800781 15.644531 26.921875 16.617188 26.328125 17.910156 L 26.378906 8.113281 C 27.066406 7.449219 29.152344 5.644531 31.230469 5.789062 Z M 9.5625 6.742188 C 11.082031 7.425781 12.917969 7.503906 15.308594 6.996094 C 15.941406 6.863281 16.574219 6.695312 17.1875 6.539062 C 18.445312 6.214844 19.75 5.875 21.058594 5.789062 C 23.136719 5.644531 25.21875 7.445312 25.914062 8.113281 L 25.863281 17.828125 C 25.285156 16.457031 24.421875 15.46875 23.292969 14.878906 C 22.191406 14.308594 20.964844 14.179688 19.960938 14.179688 C 19.695312 14.179688 19.441406 14.1875 19.210938 14.199219 C 17.527344 14.289062 15.910156 14.628906 14.347656 14.957031 C 13.5 15.136719 12.621094 15.320312 11.742188 15.464844 C 11.550781 15.496094 11.363281 15.527344 11.171875 15.558594 C 8.921875 15.933594 6.589844 16.320312 4.546875 15.65625 Z M 8.085938 8.050781 C 8.140625 8.074219 8.199219 8.097656 8.25 8.121094 L 4 15.667969 C 3.964844 15.726562 3.960938 15.800781 3.984375 15.867188 C 4.007812 15.933594 4.058594 15.980469 4.121094 16.007812 C 6.339844 16.839844 8.835938 16.425781 11.242188 16.023438 C 11.433594 15.992188 11.625 15.960938 11.808594 15.929688 C 12.703125 15.785156 13.585938 15.597656 14.441406 15.421875 C 16.058594 15.082031 17.582031 14.757812 19.234375 14.675781 C 21.46875 14.554688 24.105469 14.871094 25.441406 18.027344 C 24.789062 17.347656 23.988281 16.785156 23.0625 16.378906 C 21.828125 15.832031 20.398438 15.570312 19.035156 15.640625 C 17.359375 15.726562 15.285156 16.171875 13.277344 16.597656 C 12.191406 16.824219 11.164062 17.046875 10.277344 17.1875 C 7.261719 17.679688 4.957031 17.613281 3.066406 16.96875 L 7.601562 8.910156 L 7.605469 8.910156 L 7.605469 8.898438 Z M 24.925781 19.066406 C 24.519531 18.605469 24.0625 18.203125 23.566406 17.871094 C 21.046875 16.195312 18.238281 16.800781 14.980469 17.507812 C 13.144531 17.90625 11.066406 18.359375 8.761719 18.457031 C 6.367188 18.558594 3.90625 18.265625 1.433594 17.582031 L 6.527344 8.792969 L 7.101562 8.851562 L 2.527344 16.972656 C 2.492188 17.03125 2.488281 17.101562 2.511719 17.167969 C 2.535156 17.234375 2.585938 17.285156 2.648438 17.3125 C 4.667969 18.070312 7.117188 18.175781 10.355469 17.648438 C 11.253906 17.5 12.289062 17.28125 13.378906 17.050781 C 15.371094 16.628906 17.429688 16.191406 19.066406 16.109375 C 21.140625 16 24.0625 16.71875 25.703125 19.066406 Z M 28.976562 17.574219 C 28.296875 17.976562 27.671875 18.476562 27.125 19.066406 L 26.480469 19.066406 C 28.03125 16.867188 30.945312 15.988281 33.226562 16.109375 C 34.863281 16.195312 36.925781 16.628906 38.914062 17.050781 C 40.003906 17.285156 41.035156 17.5 41.941406 17.648438 C 45.175781 18.175781 47.625 18.066406 49.644531 17.3125 C 49.707031 17.289062 49.757812 17.238281 49.78125 17.167969 C 49.804688 17.105469 49.796875 17.03125 49.765625 16.972656 L 45.195312 8.855469 L 45.882812 8.792969 L 50.960938 17.554688 C 49.230469 17.957031 47.503906 18.183594 45.808594 18.222656 C 42.617188 18.300781 39.976562 17.75 37.652344 17.265625 C 34.425781 16.59375 31.648438 16.007812 28.976562 17.574219 Z M 28.976562 17.574219 " fill-opacity="1" fill-rule="nonzero"/><path fill="#ffffff" d="M 45.828125 19.398438 C 47.851562 19.347656 49.925781 19.050781 51.992188 18.511719 C 52.164062 18.464844 52.308594 18.335938 52.378906 18.167969 C 52.449219 18 52.433594 17.804688 52.34375 17.648438 L 46.6875 7.878906 C 46.574219 7.683594 46.355469 7.574219 46.136719 7.59375 L 44.566406 7.738281 L 44.566406 7.757812 L 44.496094 7.632812 C 44.433594 7.523438 44.304688 7.480469 44.191406 7.539062 C 44.066406 7.601562 43.933594 7.660156 43.796875 7.710938 L 43.015625 6.324219 C 42.953125 6.21875 42.824219 6.175781 42.714844 6.230469 C 41.25 6.949219 39.453125 7.046875 37.066406 6.539062 C 36.445312 6.402344 35.816406 6.242188 35.207031 6.085938 C 33.925781 5.753906 32.601562 5.414062 31.253906 5.320312 C 30.378906 5.257812 29.414062 5.503906 28.390625 6.046875 C 27.449219 6.546875 26.664062 7.191406 26.136719 7.691406 C 25.605469 7.191406 24.820312 6.546875 23.878906 6.046875 C 22.859375 5.503906 21.894531 5.257812 21.015625 5.320312 C 19.667969 5.410156 18.34375 5.753906 17.0625 6.085938 C 16.453125 6.242188 15.824219 6.402344 15.203125 6.539062 C 12.816406 7.046875 11.023438 6.949219 9.558594 6.230469 C 9.449219 6.175781 9.316406 6.21875 9.253906 6.324219 L 8.484375 7.707031 C 8.347656 7.652344 8.214844 7.597656 8.089844 7.535156 C 7.980469 7.476562 7.847656 7.519531 7.785156 7.628906 L 7.71875 7.746094 L 7.71875 7.734375 L 6.265625 7.589844 C 6.042969 7.566406 5.824219 7.679688 5.710938 7.875 L 0.0546875 17.644531 C -0.0351562 17.796875 -0.0507812 17.988281 0.015625 18.15625 C 0.0820312 18.324219 0.21875 18.453125 0.386719 18.503906 C 3.21875 19.371094 6.050781 19.75 8.808594 19.632812 C 11.207031 19.53125 13.339844 19.066406 15.222656 18.65625 C 18.347656 17.980469 20.816406 17.445312 22.933594 18.855469 C 23.40625 19.171875 23.84375 19.566406 24.214844 20.027344 C 24.324219 20.160156 24.488281 20.242188 24.664062 20.242188 L 27.382812 20.242188 C 27.550781 20.242188 27.703125 20.167969 27.816406 20.042969 C 28.328125 19.457031 28.910156 18.96875 29.558594 18.59375 C 31.855469 17.253906 34.308594 17.765625 37.417969 18.417969 C 39.796875 18.914062 42.503906 19.480469 45.828125 19.398438 Z M 44.199219 8.050781 L 44.671875 8.886719 L 44.671875 8.90625 L 44.679688 8.90625 L 49.214844 16.964844 C 47.320312 17.609375 45.019531 17.679688 42.003906 17.183594 C 41.117188 17.039062 40.085938 16.820312 39.003906 16.59375 C 36.992188 16.167969 34.917969 15.722656 33.246094 15.636719 C 31.878906 15.566406 30.429688 15.828125 29.164062 16.375 C 28.261719 16.765625 27.472656 17.296875 26.832031 17.929688 C 28.242188 15.082031 30.917969 14.558594 33.050781 14.671875 C 34.699219 14.757812 36.226562 15.078125 37.84375 15.417969 C 38.699219 15.59375 39.582031 15.78125 40.476562 15.925781 C 40.660156 15.957031 40.851562 15.988281 41.042969 16.019531 C 43.449219 16.417969 45.945312 16.832031 48.164062 16.003906 C 48.226562 15.980469 48.277344 15.929688 48.300781 15.863281 C 48.324219 15.800781 48.316406 15.722656 48.285156 15.664062 L 44.035156 8.121094 C 44.09375 8.097656 44.148438 8.074219 44.199219 8.050781 Z M 31.230469 5.789062 C 32.539062 5.878906 33.839844 6.214844 35.101562 6.539062 C 35.714844 6.695312 36.351562 6.863281 36.980469 6.996094 C 39.367188 7.503906 41.203125 7.425781 42.726562 6.742188 L 47.75 15.652344 C 45.703125 16.316406 43.378906 15.929688 41.121094 15.554688 C 40.929688 15.523438 40.738281 15.492188 40.554688 15.460938 C 39.667969 15.316406 38.792969 15.132812 37.941406 14.953125 C 36.378906 14.628906 34.765625 14.289062 33.078125 14.195312 C 31.484375 14.113281 30.09375 14.390625 28.949219 15.019531 C 27.800781 15.644531 26.921875 16.617188 26.328125 17.910156 L 26.378906 8.113281 C 27.066406 7.449219 29.152344 5.644531 31.230469 5.789062 Z M 9.5625 6.742188 C 11.082031 7.425781 12.917969 7.503906 15.308594 6.996094 C 15.941406 6.863281 16.574219 6.695312 17.1875 6.539062 C 18.445312 6.214844 19.75 5.875 21.058594 5.789062 C 23.136719 5.644531 25.21875 7.445312 25.914062 8.113281 L 25.863281 17.828125 C 25.285156 16.457031 24.421875 15.46875 23.292969 14.878906 C 22.191406 14.308594 20.964844 14.179688 19.960938 14.179688 C 19.695312 14.179688 19.441406 14.1875 19.210938 14.199219 C 17.527344 14.289062 15.910156 14.628906 14.347656 14.957031 C 13.5 15.136719 12.621094 15.320312 11.742188 15.464844 C 11.550781 15.496094 11.363281 15.527344 11.171875 15.558594 C 8.921875 15.933594 6.589844 16.320312 4.546875 15.65625 Z M 8.085938 8.050781 C 8.140625 8.074219 8.199219 8.097656 8.25 8.121094 L 4 15.667969 C 3.964844 15.726562 3.960938 15.800781 3.984375 15.867188 C 4.007812 15.933594 4.058594 15.980469 4.121094 16.007812 C 6.339844 16.839844 8.835938 16.425781 11.242188 16.023438 C 11.433594 15.992188 11.625 15.960938 11.808594 15.929688 C 12.703125 15.785156 13.585938 15.597656 14.441406 15.421875 C 16.058594 15.082031 17.582031 14.757812 19.234375 14.675781 C 21.46875 14.554688 24.105469 14.871094 25.441406 18.027344 C 24.789062 17.347656 23.988281 16.785156 23.0625 16.378906 C 21.828125 15.832031 20.398438 15.570312 19.035156 15.640625 C 17.359375 15.726562 15.285156 16.171875 13.277344 16.597656 C 12.191406 16.824219 11.164062 17.046875 10.277344 17.1875 C 7.261719 17.679688 4.957031 17.613281 3.066406 16.96875 L 7.601562 8.910156 L 7.605469 8.910156 L 7.605469 8.898438 Z M 24.925781 19.066406 C 24.519531 18.605469 24.0625 18.203125 23.566406 17.871094 C 21.046875 16.195312 18.238281 16.800781 14.980469 17.507812 C 13.144531 17.90625 11.066406 18.359375 8.761719 18.457031 C 6.367188 18.558594 3.90625 18.265625 1.433594 17.582031 L 6.527344 8.792969 L 7.101562 8.851562 L 2.527344 16.972656 C 2.492188 17.03125 2.488281 17.101562 2.511719 17.167969 C 2.535156 17.234375 2.585938 17.285156 2.648438 17.3125 C 4.667969 18.070312 7.117188 18.175781 10.355469 17.648438 C 11.253906 17.5 12.289062 17.28125 13.378906 17.050781 C 15.371094 16.628906 17.429688 16.191406 19.066406 16.109375 C 21.140625 16 24.0625 16.71875 25.703125 19.066406 Z M 28.976562 17.574219 C 28.296875 17.976562 27.671875 18.476562 27.125 19.066406 L 26.480469 19.066406 C 28.03125 16.867188 30.945312 15.988281 33.226562 16.109375 C 34.863281 16.195312 36.925781 16.628906 38.914062 17.050781 C 40.003906 17.285156 41.035156 17.5 41.941406 17.648438 C 45.175781 18.175781 47.625 18.066406 49.644531 17.3125 C 49.707031 17.289062 49.757812 17.238281 49.78125 17.167969 C 49.804688 17.105469 49.796875 17.03125 49.765625 16.972656 L 45.195312 8.855469 L 45.882812 8.792969 L 50.960938 17.554688 C 49.230469 17.957031 47.503906 18.183594 45.808594 18.222656 C 42.617188 18.300781 39.976562 17.75 37.652344 17.265625 C 34.425781 16.59375 31.648438 16.007812 28.976562 17.574219 Z M 28.976562 17.574219 " fill-opacity="1" fill-rule="nonzero"/></g><g fill="#ffffff" fill-opacity="1"><g transform="translate(6.881483, 34.133782)"><g><path d="M 8.34375 -11.65625 L 8.34375 -3.71875 C 8.34375 -2.488281 7.992188 -1.539062 7.296875 -0.875 C 6.609375 -0.21875 5.675781 0.109375 4.5 0.109375 C 3.269531 0.109375 2.285156 -0.234375 1.546875 -0.921875 C 0.804688 -1.617188 0.4375 -2.613281 0.4375 -3.90625 L 3.25 -3.90625 C 3.25 -3.414062 3.347656 -3.046875 3.546875 -2.796875 C 3.753906 -2.546875 4.046875 -2.421875 4.421875 -2.421875 C 4.765625 -2.421875 5.03125 -2.53125 5.21875 -2.75 C 5.40625 -2.976562 5.5 -3.300781 5.5 -3.71875 L 5.5 -11.65625 Z M 8.34375 -11.65625 "/></g></g></g><g fill="#ffffff" fill-opacity="1"><g transform="translate(16.479493, 34.133782)"><g><path d="M 9.765625 -4.78125 C 9.765625 -4.519531 9.75 -4.242188 9.71875 -3.953125 L 3.28125 -3.953125 C 3.332031 -3.378906 3.519531 -2.9375 3.84375 -2.625 C 4.164062 -2.320312 4.566406 -2.171875 5.046875 -2.171875 C 5.753906 -2.171875 6.25 -2.472656 6.53125 -3.078125 L 9.546875 -3.078125 C 9.390625 -2.460938 9.109375 -1.910156 8.703125 -1.421875 C 8.304688 -0.941406 7.800781 -0.5625 7.1875 -0.28125 C 6.582031 0 5.90625 0.140625 5.15625 0.140625 C 4.238281 0.140625 3.425781 -0.0507812 2.71875 -0.4375 C 2.007812 -0.832031 1.457031 -1.390625 1.0625 -2.109375 C 0.664062 -2.828125 0.46875 -3.671875 0.46875 -4.640625 C 0.46875 -5.597656 0.660156 -6.4375 1.046875 -7.15625 C 1.441406 -7.875 1.992188 -8.425781 2.703125 -8.8125 C 3.410156 -9.207031 4.226562 -9.40625 5.15625 -9.40625 C 6.050781 -9.40625 6.847656 -9.210938 7.546875 -8.828125 C 8.242188 -8.453125 8.785156 -7.914062 9.171875 -7.21875 C 9.566406 -6.519531 9.765625 -5.707031 9.765625 -4.78125 Z M 6.859375 -5.53125 C 6.859375 -6.019531 6.691406 -6.40625 6.359375 -6.6875 C 6.023438 -6.976562 5.609375 -7.125 5.109375 -7.125 C 4.640625 -7.125 4.238281 -6.984375 3.90625 -6.703125 C 3.582031 -6.429688 3.382812 -6.039062 3.3125 -5.53125 Z M 6.859375 -5.53125 "/></g></g></g><g fill="#ffffff" fill-opacity="1"><g transform="translate(26.708519, 34.133782)"><g><path d="M 5.6875 -6.90625 L 4.15625 -6.90625 L 4.15625 0 L 1.3125 0 L 1.3125 -6.90625 L 0.28125 -6.90625 L 0.28125 -9.265625 L 1.3125 -9.265625 L 1.3125 -9.53125 C 1.3125 -10.675781 1.632812 -11.539062 2.28125 -12.125 C 2.9375 -12.71875 3.898438 -13.015625 5.171875 -13.015625 C 5.378906 -13.015625 5.53125 -13.007812 5.625 -13 L 5.625 -10.59375 C 5.082031 -10.625 4.703125 -10.546875 4.484375 -10.359375 C 4.265625 -10.171875 4.15625 -9.832031 4.15625 -9.34375 L 4.15625 -9.265625 L 5.6875 -9.265625 Z M 5.6875 -6.90625 "/></g></g></g><g fill="#ffffff" fill-opacity="1"><g transform="translate(32.686522, 34.133782)"><g><path d="M 3 -13.28125 L 2.796875 -9.609375 L 0.875 -9.609375 L 0.671875 -13.28125 Z M 3 -13.28125 "/></g></g></g><g fill="#ffffff" fill-opacity="1"><g transform="translate(36.356345, 34.133782)"><g><path d="M 4.796875 0.140625 C 3.992188 0.140625 3.273438 0 2.640625 -0.28125 C 2.003906 -0.5625 1.503906 -0.941406 1.140625 -1.421875 C 0.773438 -1.898438 0.570312 -2.441406 0.53125 -3.046875 L 3.34375 -3.046875 C 3.375 -2.722656 3.519531 -2.457031 3.78125 -2.25 C 4.050781 -2.050781 4.378906 -1.953125 4.765625 -1.953125 C 5.117188 -1.953125 5.390625 -2.019531 5.578125 -2.15625 C 5.773438 -2.300781 5.875 -2.484375 5.875 -2.703125 C 5.875 -2.972656 5.734375 -3.171875 5.453125 -3.296875 C 5.179688 -3.421875 4.738281 -3.5625 4.125 -3.71875 C 3.457031 -3.875 2.898438 -4.035156 2.453125 -4.203125 C 2.015625 -4.378906 1.632812 -4.648438 1.3125 -5.015625 C 0.988281 -5.390625 0.828125 -5.894531 0.828125 -6.53125 C 0.828125 -7.0625 0.972656 -7.546875 1.265625 -7.984375 C 1.554688 -8.421875 1.988281 -8.765625 2.5625 -9.015625 C 3.132812 -9.273438 3.8125 -9.40625 4.59375 -9.40625 C 5.757812 -9.40625 6.675781 -9.113281 7.34375 -8.53125 C 8.019531 -7.957031 8.40625 -7.195312 8.5 -6.25 L 5.875 -6.25 C 5.832031 -6.570312 5.691406 -6.828125 5.453125 -7.015625 C 5.210938 -7.203125 4.898438 -7.296875 4.515625 -7.296875 C 4.179688 -7.296875 3.925781 -7.226562 3.75 -7.09375 C 3.570312 -6.96875 3.484375 -6.796875 3.484375 -6.578125 C 3.484375 -6.304688 3.625 -6.101562 3.90625 -5.96875 C 4.1875 -5.84375 4.628906 -5.710938 5.234375 -5.578125 C 5.921875 -5.398438 6.476562 -5.222656 6.90625 -5.046875 C 7.34375 -4.878906 7.722656 -4.601562 8.046875 -4.21875 C 8.367188 -3.84375 8.535156 -3.332031 8.546875 -2.6875 C 8.546875 -2.144531 8.394531 -1.660156 8.09375 -1.234375 C 7.789062 -0.804688 7.351562 -0.46875 6.78125 -0.21875 C 6.207031 0.0195312 5.546875 0.140625 4.796875 0.140625 Z M 4.796875 0.140625 "/></g></g></g><g fill="#ffffff" fill-opacity="1"><g transform="translate(0.906873, 41.293951)"><g><path d="M 2.78125 0.046875 C 2.3125 0.046875 1.882812 -0.0546875 1.5 -0.265625 C 1.113281 -0.484375 0.804688 -0.785156 0.578125 -1.171875 C 0.347656 -1.566406 0.234375 -2.007812 0.234375 -2.5 C 0.234375 -2.976562 0.347656 -3.410156 0.578125 -3.796875 C 0.804688 -4.179688 1.113281 -4.484375 1.5 -4.703125 C 1.882812 -4.921875 2.3125 -5.03125 2.78125 -5.03125 C 3.25 -5.03125 3.675781 -4.921875 4.0625 -4.703125 C 4.445312 -4.484375 4.75 -4.179688 4.96875 -3.796875 C 5.195312 -3.410156 5.3125 -2.976562 5.3125 -2.5 C 5.3125 -2.007812 5.195312 -1.566406 4.96875 -1.171875 C 4.75 -0.785156 4.445312 -0.484375 4.0625 -0.265625 C 3.675781 -0.0546875 3.25 0.046875 2.78125 0.046875 Z M 2.78125 -1.046875 C 3.175781 -1.046875 3.492188 -1.175781 3.734375 -1.4375 C 3.972656 -1.707031 4.09375 -2.0625 4.09375 -2.5 C 4.09375 -2.9375 3.972656 -3.285156 3.734375 -3.546875 C 3.492188 -3.804688 3.175781 -3.9375 2.78125 -3.9375 C 2.382812 -3.9375 2.066406 -3.804688 1.828125 -3.546875 C 1.585938 -3.285156 1.46875 -2.9375 1.46875 -2.5 C 1.46875 -2.0625 1.585938 -1.707031 1.828125 -1.4375 C 2.066406 -1.175781 2.382812 -1.046875 2.78125 -1.046875 Z M 2.78125 -1.046875 "/></g></g></g><g fill="#ffffff" fill-opacity="1"><g transform="translate(6.462425, 41.293951)"><g><path d="M 2.84375 -3.984375 C 3.300781 -3.984375 3.664062 -3.832031 3.9375 -3.53125 C 4.21875 -3.238281 4.359375 -2.828125 4.359375 -2.296875 L 4.359375 0 L 3.15625 0 L 3.15625 -2.140625 C 3.15625 -2.398438 3.085938 -2.601562 2.953125 -2.75 C 2.816406 -2.894531 2.632812 -2.96875 2.40625 -2.96875 C 2.175781 -2.96875 1.988281 -2.894531 1.84375 -2.75 C 1.707031 -2.601562 1.640625 -2.398438 1.640625 -2.140625 L 1.640625 0 L 0.4375 0 L 0.4375 -3.9375 L 1.640625 -3.9375 L 1.640625 -3.421875 C 1.765625 -3.585938 1.929688 -3.722656 2.140625 -3.828125 C 2.347656 -3.929688 2.582031 -3.984375 2.84375 -3.984375 Z M 2.84375 -3.984375 "/></g></g></g><g fill="#ffffff" fill-opacity="1"><g transform="translate(11.226346, 41.293951)"><g><path d="M 1.640625 -5.21875 L 1.640625 0 L 0.4375 0 L 0.4375 -5.21875 Z M 1.640625 -5.21875 "/></g></g></g><g fill="#ffffff" fill-opacity="1"><g transform="translate(13.311444, 41.293951)"><g><path d="M 1.046875 -4.34375 C 0.835938 -4.34375 0.664062 -4.40625 0.53125 -4.53125 C 0.394531 -4.65625 0.328125 -4.8125 0.328125 -5 C 0.328125 -5.1875 0.394531 -5.34375 0.53125 -5.46875 C 0.664062 -5.59375 0.835938 -5.65625 1.046875 -5.65625 C 1.253906 -5.65625 1.425781 -5.59375 1.5625 -5.46875 C 1.695312 -5.34375 1.765625 -5.1875 1.765625 -5 C 1.765625 -4.8125 1.695312 -4.65625 1.5625 -4.53125 C 1.425781 -4.40625 1.253906 -4.34375 1.046875 -4.34375 Z M 1.640625 -3.9375 L 1.640625 0 L 0.4375 0 L 0.4375 -3.9375 Z M 1.640625 -3.9375 "/></g></g></g><g fill="#ffffff" fill-opacity="1"><g transform="translate(15.396542, 41.293951)"><g><path d="M 2.84375 -3.984375 C 3.300781 -3.984375 3.664062 -3.832031 3.9375 -3.53125 C 4.21875 -3.238281 4.359375 -2.828125 4.359375 -2.296875 L 4.359375 0 L 3.15625 0 L 3.15625 -2.140625 C 3.15625 -2.398438 3.085938 -2.601562 2.953125 -2.75 C 2.816406 -2.894531 2.632812 -2.96875 2.40625 -2.96875 C 2.175781 -2.96875 1.988281 -2.894531 1.84375 -2.75 C 1.707031 -2.601562 1.640625 -2.398438 1.640625 -2.140625 L 1.640625 0 L 0.4375 0 L 0.4375 -3.9375 L 1.640625 -3.9375 L 1.640625 -3.421875 C 1.765625 -3.585938 1.929688 -3.722656 2.140625 -3.828125 C 2.347656 -3.929688 2.582031 -3.984375 2.84375 -3.984375 Z M 2.84375 -3.984375 "/></g></g></g><g fill="#ffffff" fill-opacity="1"><g transform="translate(20.160464, 41.293951)"><g><path d="M 4.15625 -2.03125 C 4.15625 -1.914062 4.144531 -1.800781 4.125 -1.6875 L 1.390625 -1.6875 C 1.410156 -1.4375 1.488281 -1.242188 1.625 -1.109375 C 1.769531 -0.984375 1.941406 -0.921875 2.140625 -0.921875 C 2.441406 -0.921875 2.65625 -1.050781 2.78125 -1.3125 L 4.0625 -1.3125 C 4 -1.050781 3.878906 -0.816406 3.703125 -0.609375 C 3.535156 -0.398438 3.320312 -0.234375 3.0625 -0.109375 C 2.800781 0.00390625 2.507812 0.0625 2.1875 0.0625 C 1.800781 0.0625 1.457031 -0.0195312 1.15625 -0.1875 C 0.851562 -0.351562 0.617188 -0.585938 0.453125 -0.890625 C 0.285156 -1.203125 0.203125 -1.5625 0.203125 -1.96875 C 0.203125 -2.375 0.285156 -2.726562 0.453125 -3.03125 C 0.617188 -3.34375 0.851562 -3.582031 1.15625 -3.75 C 1.457031 -3.914062 1.800781 -4 2.1875 -4 C 2.570312 -4 2.910156 -3.914062 3.203125 -3.75 C 3.503906 -3.59375 3.738281 -3.363281 3.90625 -3.0625 C 4.070312 -2.769531 4.15625 -2.425781 4.15625 -2.03125 Z M 2.921875 -2.359375 C 2.921875 -2.554688 2.847656 -2.71875 2.703125 -2.84375 C 2.566406 -2.96875 2.390625 -3.03125 2.171875 -3.03125 C 1.972656 -3.03125 1.800781 -2.96875 1.65625 -2.84375 C 1.519531 -2.726562 1.4375 -2.566406 1.40625 -2.359375 Z M 2.921875 -2.359375 "/></g></g></g><g fill="#ffffff" fill-opacity="1"><g transform="translate(24.514437, 41.293951)"><g/></g></g><g fill="#ffffff" fill-opacity="1"><g transform="translate(26.012883, 41.293951)"><g><path d="M 1.640625 -0.9375 L 3.234375 -0.9375 L 3.234375 0 L 0.4375 0 L 0.4375 -4.953125 L 1.640625 -4.953125 Z M 1.640625 -0.9375 "/></g></g></g><g fill="#ffffff" fill-opacity="1"><g transform="translate(29.384384, 41.293951)"><g><path d="M 1.046875 -4.34375 C 0.835938 -4.34375 0.664062 -4.40625 0.53125 -4.53125 C 0.394531 -4.65625 0.328125 -4.8125 0.328125 -5 C 0.328125 -5.1875 0.394531 -5.34375 0.53125 -5.46875 C 0.664062 -5.59375 0.835938 -5.65625 1.046875 -5.65625 C 1.253906 -5.65625 1.425781 -5.59375 1.5625 -5.46875 C 1.695312 -5.34375 1.765625 -5.1875 1.765625 -5 C 1.765625 -4.8125 1.695312 -4.65625 1.5625 -4.53125 C 1.425781 -4.40625 1.253906 -4.34375 1.046875 -4.34375 Z M 1.640625 -3.9375 L 1.640625 0 L 0.4375 0 L 0.4375 -3.9375 Z M 1.640625 -3.9375 "/></g></g></g><g fill="#ffffff" fill-opacity="1"><g transform="translate(31.469482, 41.293951)"><g><path d="M 1.640625 -3.390625 C 1.753906 -3.566406 1.914062 -3.710938 2.125 -3.828125 C 2.34375 -3.941406 2.585938 -4 2.859375 -4 C 3.179688 -4 3.472656 -3.914062 3.734375 -3.75 C 4.003906 -3.582031 4.210938 -3.34375 4.359375 -3.03125 C 4.515625 -2.726562 4.59375 -2.378906 4.59375 -1.984375 C 4.59375 -1.578125 4.515625 -1.21875 4.359375 -0.90625 C 4.210938 -0.59375 4.003906 -0.351562 3.734375 -0.1875 C 3.472656 -0.0195312 3.179688 0.0625 2.859375 0.0625 C 2.578125 0.0625 2.332031 0.00390625 2.125 -0.109375 C 1.925781 -0.222656 1.765625 -0.367188 1.640625 -0.546875 L 1.640625 0 L 0.4375 0 L 0.4375 -5.21875 L 1.640625 -5.21875 Z M 3.375 -1.984375 C 3.375 -2.273438 3.289062 -2.503906 3.125 -2.671875 C 2.957031 -2.847656 2.75 -2.9375 2.5 -2.9375 C 2.257812 -2.9375 2.054688 -2.847656 1.890625 -2.671875 C 1.722656 -2.503906 1.640625 -2.269531 1.640625 -1.96875 C 1.640625 -1.664062 1.722656 -1.425781 1.890625 -1.25 C 2.054688 -1.082031 2.257812 -1 2.5 -1 C 2.738281 -1 2.941406 -1.085938 3.109375 -1.265625 C 3.285156 -1.441406 3.375 -1.679688 3.375 -1.984375 Z M 3.375 -1.984375 "/></g></g></g><g fill="#ffffff" fill-opacity="1"><g transform="translate(36.268742, 41.293951)"><g><path d="M 1.640625 -3.28125 C 1.785156 -3.5 1.960938 -3.671875 2.171875 -3.796875 C 2.390625 -3.921875 2.625 -3.984375 2.875 -3.984375 L 2.875 -2.703125 L 2.546875 -2.703125 C 2.242188 -2.703125 2.015625 -2.632812 1.859375 -2.5 C 1.710938 -2.375 1.640625 -2.148438 1.640625 -1.828125 L 1.640625 0 L 0.4375 0 L 0.4375 -3.9375 L 1.640625 -3.9375 Z M 1.640625 -3.28125 "/></g></g></g><g fill="#ffffff" fill-opacity="1"><g transform="translate(39.2939, 41.293951)"><g><path d="M 0.203125 -1.984375 C 0.203125 -2.378906 0.273438 -2.726562 0.421875 -3.03125 C 0.578125 -3.34375 0.785156 -3.582031 1.046875 -3.75 C 1.316406 -3.914062 1.613281 -4 1.9375 -4 C 2.21875 -4 2.460938 -3.941406 2.671875 -3.828125 C 2.878906 -3.710938 3.039062 -3.566406 3.15625 -3.390625 L 3.15625 -3.9375 L 4.359375 -3.9375 L 4.359375 0 L 3.15625 0 L 3.15625 -0.5625 C 3.03125 -0.375 2.863281 -0.222656 2.65625 -0.109375 C 2.445312 0.00390625 2.203125 0.0625 1.921875 0.0625 C 1.609375 0.0625 1.316406 -0.0195312 1.046875 -0.1875 C 0.785156 -0.351562 0.578125 -0.59375 0.421875 -0.90625 C 0.273438 -1.21875 0.203125 -1.578125 0.203125 -1.984375 Z M 3.15625 -1.96875 C 3.15625 -2.269531 3.066406 -2.503906 2.890625 -2.671875 C 2.722656 -2.847656 2.519531 -2.9375 2.28125 -2.9375 C 2.039062 -2.9375 1.835938 -2.847656 1.671875 -2.671875 C 1.503906 -2.503906 1.421875 -2.273438 1.421875 -1.984375 C 1.421875 -1.679688 1.503906 -1.441406 1.671875 -1.265625 C 1.835938 -1.085938 2.039062 -1 2.28125 -1 C 2.519531 -1 2.722656 -1.082031 2.890625 -1.25 C 3.066406 -1.425781 3.15625 -1.664062 3.15625 -1.96875 Z M 3.15625 -1.96875 "/></g></g></g><g fill="#ffffff" fill-opacity="1"><g transform="translate(44.09316, 41.293951)"><g><path d="M 1.640625 -3.28125 C 1.785156 -3.5 1.960938 -3.671875 2.171875 -3.796875 C 2.390625 -3.921875 2.625 -3.984375 2.875 -3.984375 L 2.875 -2.703125 L 2.546875 -2.703125 C 2.242188 -2.703125 2.015625 -2.632812 1.859375 -2.5 C 1.710938 -2.375 1.640625 -2.148438 1.640625 -1.828125 L 1.640625 0 L 0.4375 0 L 0.4375 -3.9375 L 1.640625 -3.9375 Z M 1.640625 -3.28125 "/></g></g></g><g fill="#ffffff" fill-opacity="1"><g transform="translate(47.118318, 41.293951)"><g><path d="M 4.46875 -3.9375 L 1.984375 1.875 L 0.6875 1.875 L 1.59375 -0.140625 L 0 -3.9375 L 1.34375 -3.9375 L 2.25 -1.46875 L 3.15625 -3.9375 Z M 4.46875 -3.9375 "/></g></g></g></svg>