<svg xmlns="http://www.w3.org/2000/svg" xmlns:xlink="http://www.w3.org/1999/xlink" width="70" zoomAndPan="magnify" viewBox="0 0 52.5 52.499999" height="70" preserveAspectRatio="xMidYMid meet" version="1.0"><defs><clipPath id="033607bf69"><path d="M 16 15 L 45 15 L 45 51.441406 L 16 51.441406 Z M 16 15 " clip-rule="nonzero"/></clipPath><clipPath id="640e7ef70e"><path d="M 5 6 L 52 6 L 52 51.441406 L 5 51.441406 Z M 5 6 " clip-rule="nonzero"/></clipPath></defs><path fill="#d8d4d3" d="M 43.746094 45.378906 C 44.242188 46.070312 44.296875 46.882812 43.867188 47.191406 L 38.941406 50.730469 C 38.511719 51.035156 37.765625 50.726562 37.269531 50.03125 L 26.683594 33.65625 L 16.863281 20.097656 C 16.367188 19.40625 16.316406 18.59375 16.742188 18.289062 L 19.800781 16.09375 C 20.226562 15.785156 20.976562 16.097656 21.46875 16.789062 L 30.933594 30.226562 Z M 43.746094 45.378906 " fill-opacity="1" fill-rule="nonzero"/><g clip-path="url(#033607bf69)"><path fill="#808080" d="M 38.550781 51.234375 C 37.996094 51.234375 37.386719 50.859375 36.957031 50.257812 L 26.359375 33.867188 L 16.550781 20.324219 C 15.921875 19.445312 15.910156 18.410156 16.519531 17.972656 L 19.574219 15.777344 C 19.75 15.652344 19.960938 15.585938 20.191406 15.585938 C 20.742188 15.585938 21.351562 15.960938 21.78125 16.5625 L 31.238281 29.988281 L 44.0625 45.152344 C 44.6875 46.03125 44.703125 47.066406 44.09375 47.503906 L 39.164062 51.042969 C 38.992188 51.167969 38.777344 51.234375 38.550781 51.234375 Z M 20.191406 16.359375 C 20.121094 16.359375 20.066406 16.375 20.023438 16.40625 L 16.96875 18.601562 C 16.753906 18.753906 16.800781 19.34375 17.175781 19.871094 L 26.996094 33.429688 L 37.59375 49.820312 C 37.902344 50.257812 38.308594 50.460938 38.550781 50.460938 C 38.617188 50.460938 38.671875 50.445312 38.714844 50.414062 L 43.644531 46.875 C 43.855469 46.722656 43.8125 46.140625 43.441406 45.617188 L 30.617188 30.449219 L 21.152344 17.011719 C 20.835938 16.566406 20.429688 16.359375 20.191406 16.359375 Z M 20.191406 16.359375 " fill-opacity="1" fill-rule="nonzero"/></g><path fill="#00ffff" d="M 30.289062 28.269531 L 24.585938 32.367188 L 24.867188 32.75 L 35.242188 49.277344 C 35.734375 49.96875 36.582031 50.210938 37.132812 49.8125 L 43.476562 45.257812 C 44.027344 44.859375 44.074219 43.980469 43.578125 43.285156 L 30.386719 28.40625 Z M 30.289062 28.269531 " fill-opacity="1" fill-rule="nonzero"/><path fill="#ffffff" d="M 36.828125 49.269531 C 36.683594 49.269531 36.535156 49.246094 36.386719 49.203125 C 35.972656 49.085938 35.59375 48.8125 35.320312 48.429688 L 34.066406 46.4375 C 33.953125 46.253906 34.007812 46.015625 34.1875 45.902344 C 34.367188 45.789062 34.605469 45.84375 34.71875 46.023438 L 35.957031 47.996094 C 36.117188 48.21875 36.347656 48.390625 36.597656 48.460938 C 36.816406 48.523438 37.019531 48.496094 37.167969 48.390625 L 38.054688 47.75 C 38.230469 47.628906 38.46875 47.667969 38.59375 47.839844 C 38.71875 48.015625 38.679688 48.257812 38.503906 48.378906 L 37.617188 49.019531 C 37.386719 49.183594 37.117188 49.269531 36.828125 49.269531 Z M 36.828125 49.269531 " fill-opacity="1" fill-rule="nonzero"/><path fill="#d8d4d3" d="M 31.976562 6.644531 C 27.847656 2.050781 20.84375 1.203125 15.707031 4.894531 C 15.539062 5.015625 15.382812 5.148438 15.21875 5.277344 L 6.585938 11.480469 C 6.117188 11.816406 6.011719 12.46875 6.34375 12.9375 L 6.683594 13.410156 C 6.546875 13.453125 6.414062 13.511719 6.289062 13.601562 L 5.230469 14.363281 L 4.816406 13.785156 C 4.484375 13.316406 3.878906 13.175781 3.46875 13.472656 L 0.777344 15.40625 C 0.363281 15.699219 0.300781 16.320312 0.636719 16.789062 L 6.863281 25.503906 C 7.199219 25.972656 7.800781 26.113281 8.214844 25.816406 L 10.90625 23.886719 C 11.316406 23.589844 11.378906 22.96875 11.042969 22.5 L 10.632812 21.925781 L 11.691406 21.164062 C 11.8125 21.074219 11.914062 20.96875 12 20.851562 L 12.335938 21.324219 C 12.671875 21.792969 13.320312 21.898438 13.789062 21.566406 L 23.515625 14.578125 C 23.980469 14.242188 24.089844 13.589844 23.753906 13.121094 L 20.589844 8.691406 C 23.800781 6.519531 27.222656 6.441406 30.699219 7.566406 C 30.699219 7.566406 30.9375 7.804688 31.488281 7.410156 C 32.417969 6.75 31.976562 6.644531 31.976562 6.644531 Z M 31.976562 6.644531 " fill-opacity="1" fill-rule="nonzero"/><path fill="#808080" d="M 7.722656 26.359375 C 7.269531 26.359375 6.832031 26.125 6.550781 25.730469 L 0.324219 17.011719 C 0.105469 16.710938 0.0078125 16.347656 0.0429688 15.992188 C 0.078125 15.621094 0.261719 15.300781 0.550781 15.089844 L 3.242188 13.15625 C 3.449219 13.007812 3.695312 12.929688 3.957031 12.929688 C 4.410156 12.929688 4.851562 13.164062 5.132812 13.558594 L 5.320312 13.820312 L 6.0625 13.285156 C 6.078125 13.277344 6.089844 13.269531 6.101562 13.261719 L 6.03125 13.164062 C 5.574219 12.519531 5.722656 11.625 6.359375 11.167969 L 14.996094 4.964844 L 15.125 4.859375 C 15.242188 4.761719 15.359375 4.667969 15.484375 4.578125 C 17.648438 3.023438 20.195312 2.199219 22.851562 2.199219 C 26.414062 2.199219 29.820312 3.703125 32.210938 6.328125 C 32.320312 6.394531 32.425781 6.503906 32.457031 6.671875 C 32.539062 7.074219 32.125 7.429688 31.714844 7.726562 C 31.4375 7.921875 31.171875 8.023438 30.925781 8.023438 C 30.742188 8.023438 30.609375 7.96875 30.523438 7.914062 C 29.113281 7.464844 27.757812 7.234375 26.496094 7.234375 C 24.5625 7.234375 22.804688 7.746094 21.136719 8.792969 L 24.066406 12.898438 C 24.527344 13.539062 24.378906 14.433594 23.738281 14.890625 L 14.011719 21.878906 C 13.769531 22.054688 13.480469 22.148438 13.183594 22.148438 C 12.722656 22.148438 12.289062 21.921875 12.023438 21.550781 L 11.953125 21.453125 C 11.941406 21.460938 11.929688 21.46875 11.914062 21.480469 L 11.171875 22.015625 L 11.359375 22.277344 C 11.816406 22.917969 11.714844 23.78125 11.128906 24.199219 L 8.4375 26.132812 C 8.230469 26.28125 7.984375 26.359375 7.722656 26.359375 Z M 3.957031 13.703125 C 3.855469 13.703125 3.769531 13.730469 3.691406 13.785156 L 1 15.71875 C 0.890625 15.796875 0.824219 15.921875 0.808594 16.070312 C 0.792969 16.238281 0.84375 16.414062 0.949219 16.5625 L 7.175781 25.28125 C 7.378906 25.5625 7.757812 25.667969 7.988281 25.503906 L 10.679688 23.570312 C 10.917969 23.398438 10.941406 23.019531 10.730469 22.726562 L 10.09375 21.835938 L 11.464844 20.847656 C 11.546875 20.792969 11.617188 20.71875 11.6875 20.625 L 12.003906 20.191406 L 12.648438 21.097656 C 12.851562 21.382812 13.28125 21.453125 13.5625 21.25 L 23.289062 14.265625 C 23.582031 14.054688 23.652344 13.640625 23.441406 13.347656 L 20.042969 8.59375 L 20.375 8.371094 C 22.242188 7.105469 24.304688 6.460938 26.496094 6.460938 C 27.855469 6.460938 29.308594 6.710938 30.816406 7.199219 L 30.90625 7.226562 L 30.929688 7.25 C 30.980469 7.246094 31.085938 7.226562 31.265625 7.097656 C 31.441406 6.972656 31.546875 6.878906 31.613281 6.816406 C 29.367188 4.375 26.183594 2.976562 22.851562 2.976562 C 20.359375 2.976562 17.964844 3.746094 15.933594 5.207031 C 15.820312 5.289062 15.71875 5.375 15.613281 5.457031 L 15.460938 5.582031 L 6.808594 11.796875 C 6.515625 12.007812 6.449219 12.417969 6.660156 12.710938 L 7.308594 13.621094 L 6.796875 13.777344 C 6.6875 13.8125 6.59375 13.859375 6.515625 13.917969 L 5.140625 14.902344 L 4.503906 14.011719 C 4.371094 13.820312 4.160156 13.703125 3.957031 13.703125 Z M 3.957031 13.703125 " fill-opacity="1" fill-rule="nonzero"/><path fill="#d8d4d3" d="M 3.753906 14.742188 L 2.382812 15.726562 C 1.96875 16.023438 1.90625 16.640625 2.242188 17.109375 L 3.335938 18.640625 " fill-opacity="1" fill-rule="nonzero"/><path fill="#ffffff" d="M 3.335938 19.027344 C 3.214844 19.027344 3.097656 18.972656 3.023438 18.867188 L 1.929688 17.335938 C 1.710938 17.03125 1.613281 16.667969 1.648438 16.316406 C 1.6875 15.941406 1.867188 15.621094 2.15625 15.414062 L 3.527344 14.425781 C 3.703125 14.300781 3.941406 14.34375 4.066406 14.515625 C 4.191406 14.6875 4.152344 14.929688 3.976562 15.054688 L 2.605469 16.042969 C 2.5 16.117188 2.429688 16.242188 2.414062 16.394531 C 2.398438 16.558594 2.449219 16.734375 2.554688 16.886719 L 3.648438 18.417969 C 3.773438 18.589844 3.734375 18.832031 3.558594 18.957031 C 3.492188 19.003906 3.414062 19.027344 3.335938 19.027344 Z M 3.335938 19.027344 " fill-opacity="1" fill-rule="nonzero"/><path fill="#00ffff" d="M 31.894531 23.300781 C 31.25 22.613281 30.042969 22.699219 29.203125 23.496094 L 28.496094 24.164062 L 27.953125 24.675781 " fill-opacity="1" fill-rule="nonzero"/><path fill="#ffffff" d="M 27.953125 25.0625 C 27.851562 25.0625 27.75 25.019531 27.675781 24.941406 C 27.527344 24.785156 27.535156 24.539062 27.691406 24.394531 L 28.9375 23.214844 C 29.933594 22.273438 31.386719 22.195312 32.175781 23.035156 C 32.320312 23.191406 32.3125 23.4375 32.160156 23.582031 C 32.003906 23.730469 31.757812 23.722656 31.613281 23.566406 C 31.113281 23.035156 30.152344 23.128906 29.46875 23.777344 L 28.21875 24.957031 C 28.144531 25.027344 28.050781 25.0625 27.953125 25.0625 Z M 27.953125 25.0625 " fill-opacity="1" fill-rule="nonzero"/><path fill="#d8d4d3" d="M 23.402344 38.679688 C 23.425781 38.65625 23.453125 38.636719 23.476562 38.613281 L 26.199219 36.042969 L 36.003906 26.78125 L 38.726562 24.210938 C 38.75 24.1875 38.773438 24.160156 38.796875 24.136719 C 39.984375 24.621094 41.257812 24.84375 42.523438 24.804688 C 44.699219 24.757812 46.863281 23.933594 48.570312 22.320312 C 51.1875 19.847656 52.023438 16.191406 51.03125 12.964844 L 50.960938 13.03125 C 50.957031 13.007812 50.949219 12.988281 50.941406 12.964844 L 44.605469 18.953125 L 39.570312 13.59375 L 46.164062 7.367188 C 42.878906 5.835938 38.859375 6.359375 36.0625 9.003906 C 35.902344 9.152344 35.75 9.308594 35.605469 9.464844 L 35.566406 9.425781 C 33.078125 12.09375 32.464844 15.914062 33.789062 19.148438 L 31.210938 21.582031 L 21.308594 30.933594 L 18.734375 33.371094 C 15.59375 31.847656 11.753906 32.234375 8.949219 34.566406 L 8.988281 34.605469 C 8.820312 34.742188 8.660156 34.886719 8.5 35.035156 C 5.703125 37.679688 4.941406 41.671875 6.269531 45.050781 L 12.859375 38.824219 L 17.894531 44.183594 L 11.554688 50.167969 C 11.578125 50.179688 11.597656 50.183594 11.621094 50.191406 L 11.546875 50.261719 C 14.703125 51.445312 18.390625 50.828125 21.007812 48.355469 C 22.71875 46.742188 23.664062 44.621094 23.84375 42.449219 C 23.957031 41.183594 23.8125 39.898438 23.402344 38.679688 Z M 23.402344 38.679688 " fill-opacity="1" fill-rule="nonzero"/><g clip-path="url(#640e7ef70e)"><path fill="#808080" d="M 14.757812 51.230469 C 13.609375 51.230469 12.484375 51.023438 11.414062 50.621094 C 11.289062 50.574219 11.195312 50.46875 11.167969 50.335938 C 11.160156 50.285156 11.160156 50.234375 11.167969 50.183594 C 11.167969 50.074219 11.210938 49.964844 11.289062 49.886719 L 17.347656 44.164062 L 12.84375 39.371094 L 6.53125 45.332031 C 6.4375 45.417969 6.308594 45.457031 6.183594 45.429688 C 6.058594 45.398438 5.957031 45.3125 5.910156 45.191406 C 4.476562 41.542969 5.386719 37.445312 8.234375 34.753906 C 8.347656 34.648438 8.460938 34.546875 8.585938 34.441406 C 8.609375 34.375 8.648438 34.316406 8.703125 34.269531 C 10.40625 32.855469 12.558594 32.074219 14.769531 32.074219 C 16.105469 32.074219 17.445312 32.363281 18.660156 32.910156 L 33.335938 19.046875 C 32.058594 15.664062 32.808594 11.8125 35.285156 9.160156 C 35.332031 9.109375 35.394531 9.070312 35.464844 9.050781 C 35.574219 8.9375 35.683594 8.828125 35.796875 8.722656 C 37.566406 7.050781 39.878906 6.128906 42.308594 6.128906 C 43.691406 6.128906 45.078125 6.433594 46.324219 7.015625 C 46.441406 7.070312 46.523438 7.179688 46.542969 7.304688 C 46.5625 7.433594 46.519531 7.5625 46.425781 7.648438 L 40.113281 13.609375 L 44.621094 18.40625 L 50.679688 12.683594 C 50.757812 12.605469 50.871094 12.570312 50.980469 12.582031 C 51.027344 12.574219 51.082031 12.578125 51.128906 12.589844 C 51.257812 12.625 51.363281 12.722656 51.402344 12.851562 C 52.476562 16.355469 51.492188 20.089844 48.835938 22.601562 C 47.121094 24.21875 44.882812 25.140625 42.53125 25.191406 C 42.433594 25.195312 42.335938 25.195312 42.234375 25.195312 C 41.082031 25.195312 39.960938 24.992188 38.886719 24.589844 L 23.84375 38.796875 C 24.214844 39.992188 24.339844 41.234375 24.226562 42.484375 C 24.035156 44.832031 22.984375 47.019531 21.273438 48.636719 C 19.503906 50.308594 17.1875 51.230469 14.757812 51.230469 Z M 12.214844 50.078125 C 13.039062 50.328125 13.890625 50.457031 14.757812 50.457031 C 16.992188 50.457031 19.117188 49.609375 20.746094 48.074219 C 22.316406 46.585938 23.28125 44.578125 23.457031 42.417969 C 23.570312 41.1875 23.429688 39.96875 23.035156 38.800781 C 22.984375 38.652344 23.035156 38.484375 23.15625 38.378906 C 23.15625 38.378906 23.175781 38.363281 23.175781 38.363281 C 23.1875 38.355469 23.199219 38.34375 23.210938 38.335938 L 38.464844 23.929688 C 38.472656 23.917969 38.484375 23.90625 38.492188 23.894531 L 38.515625 23.875 C 38.625 23.757812 38.792969 23.71875 38.941406 23.78125 C 40.074219 24.242188 41.285156 24.457031 42.511719 24.417969 C 44.675781 24.371094 46.734375 23.527344 48.304688 22.039062 C 50.613281 19.859375 51.546875 16.679688 50.8125 13.621094 L 44.867188 19.234375 C 44.792969 19.304688 44.691406 19.34375 44.59375 19.339844 C 44.488281 19.339844 44.394531 19.292969 44.324219 19.21875 L 39.289062 13.859375 C 39.21875 13.785156 39.179688 13.6875 39.183594 13.582031 C 39.1875 13.480469 39.230469 13.382812 39.304688 13.3125 L 45.46875 7.492188 C 44.464844 7.105469 43.386719 6.902344 42.308594 6.902344 C 40.078125 6.902344 37.953125 7.75 36.324219 9.285156 C 36.179688 9.421875 36.03125 9.570312 35.890625 9.726562 C 35.839844 9.78125 35.777344 9.820312 35.710938 9.839844 C 33.492188 12.332031 32.875 15.902344 34.148438 19 C 34.207031 19.148438 34.171875 19.316406 34.054688 19.429688 L 18.996094 33.652344 C 18.882812 33.761719 18.710938 33.789062 18.566406 33.71875 C 17.390625 33.148438 16.078125 32.847656 14.769531 32.847656 C 12.804688 32.847656 10.890625 33.519531 9.351562 34.738281 C 9.328125 34.804688 9.289062 34.863281 9.234375 34.90625 C 9.0625 35.046875 8.910156 35.179688 8.761719 35.316406 C 6.289062 37.65625 5.40625 41.152344 6.433594 44.363281 L 12.597656 38.542969 C 12.75 38.394531 12.996094 38.402344 13.140625 38.558594 L 18.175781 43.917969 C 18.246094 43.992188 18.28125 44.089844 18.28125 44.195312 C 18.277344 44.296875 18.234375 44.394531 18.160156 44.464844 Z M 12.214844 50.078125 " fill-opacity="1" fill-rule="nonzero"/></g><path fill="#d8d4d3" d="M 13.945312 49.515625 C 16.335938 49.636719 18.765625 48.816406 20.644531 47.039062 " fill-opacity="1" fill-rule="nonzero"/><path fill="#ffffff" d="M 14.40625 49.914062 C 14.246094 49.914062 14.085938 49.910156 13.925781 49.902344 C 13.710938 49.894531 13.550781 49.710938 13.558594 49.5 C 13.570312 49.285156 13.75 49.125 13.964844 49.132812 C 16.355469 49.25 18.636719 48.40625 20.378906 46.757812 C 20.535156 46.613281 20.78125 46.621094 20.925781 46.777344 C 21.070312 46.929688 21.066406 47.175781 20.910156 47.320312 C 19.128906 49.003906 16.835938 49.914062 14.40625 49.914062 Z M 14.40625 49.914062 " fill-opacity="1" fill-rule="nonzero"/><path fill="#d8d4d3" d="M 44.035156 7.910156 C 41.601562 7.558594 39.039062 8.28125 37.109375 10.105469 C 37.03125 10.175781 36.957031 10.25 36.886719 10.324219 " fill-opacity="1" fill-rule="nonzero"/><path fill="#ffffff" d="M 36.886719 10.710938 C 36.789062 10.710938 36.691406 10.671875 36.617188 10.601562 C 36.464844 10.449219 36.460938 10.207031 36.609375 10.054688 C 36.683594 9.976562 36.765625 9.898438 36.84375 9.824219 C 38.792969 7.980469 41.433594 7.144531 44.089844 7.527344 C 44.300781 7.554688 44.445312 7.753906 44.414062 7.964844 C 44.386719 8.175781 44.191406 8.320312 43.980469 8.292969 C 41.558594 7.941406 39.148438 8.707031 37.375 10.386719 C 37.300781 10.453125 37.230469 10.523438 37.160156 10.59375 C 37.085938 10.671875 36.984375 10.710938 36.886719 10.710938 Z M 36.886719 10.710938 " fill-opacity="1" fill-rule="nonzero"/></svg>